<?xml version="1.0" encoding="UTF-8"?><!DOCTYPE svg PUBLIC "-//W3C//DTD SVG 1.1//EN" "http://www.w3.org/Graphics/SVG/1.1/DTD/svg11.dtd"><svg xmlns="http://www.w3.org/2000/svg" xmlns:xlink="http://www.w3.org/1999/xlink"><defs>
<clipPath id="clip0">
<rect width="26.943" height="34" fill="white"/>
</clipPath>

<clipPath id="clip0">
<rect width="136" height="164" fill="white"/>
</clipPath>

<clipPath id="clip0">
<rect width="171" height="195" fill="white"/>
</clipPath>
</defs><symbol id="academy" viewBox="0 0 27 34">
<g clip-path="url(#clip0)">
<path d="M13.62 0.0169551L13.472 0L0 1.40827V26.0042L13.473 34L26.903 26.0311L26.945 26.0062V1.40827L13.62 0.0169551ZM25.019 12.095L13.495 5.31992L13.494 5.21619L13.407 5.26606L13.319 5.21021V5.31892L1.925 12.086V3.13869L13.473 1.92989L25.02 3.13869V12.095H25.019ZM13.405 6.76908L24.923 13.4644L20.444 16.0974L13.351 11.8875L13.337 13.2988L19.241 16.8025L18.381 17.3082L13.351 14.3241L13.337 15.7353L17.164 18.0043L16.382 18.526L13.351 16.7437L13.337 18.1529L15.19 19.2411L13.39 20.3192L2.034 13.586L13.405 6.76908ZM1.925 15.0871L13.336 21.8601L13.352 22.9014L5.41 18.1859L5.395 19.5981L13.374 24.3805L13.392 25.4536L5.419 20.7261L5.406 22.1364L13.427 26.9457L13.473 26.9706L21.616 22.1115L21.605 16.9481L25.02 14.9175V24.9121L13.472 31.7659L1.925 24.9131V15.0871Z" fill="currentColor"/>
</g>

</symbol><symbol id="credit" viewBox="0 0 156 188">
<path d="M141.25 83.627C149.396 83.627 156 77.0232 156 68.877C156 60.7308 149.396 54.127 141.25 54.127C133.104 54.127 126.5 60.7308 126.5 68.877C126.5 77.0232 133.104 83.627 141.25 83.627Z" fill="white"/>
<path d="M89.1131 139.544L82.0391 157.419L59.2151 172.336C57.0471 173.568 55.5811 175.895 55.5811 178.566C55.5811 182.524 58.7891 185.733 62.7481 185.733C64.2831 185.733 65.7031 185.246 66.8691 184.423C70.6301 182.052 89.2201 170.339 92.3641 168.543C95.8641 166.543 96.4891 163.418 96.4891 163.418L101.364 147.418C101.364 147.418 101.364 147.418 95.6141 144.793C89.8641 142.168 89.1131 139.544 89.1131 139.544Z" fill="white"/>
<path d="M139.321 141.462C139.321 141.462 138.163 137.628 134.742 136.295C131.321 134.962 116.655 128.545 116.655 128.545L132.071 102.961C132.071 102.961 135.905 93.961 131.738 89.544C127.571 85.127 117.988 79.794 117.988 79.794H110.467L126.266 52.993C129.62 47.307 127.709 39.912 122.024 36.561L72.6331 7.447C66.9471 4.095 59.5541 6.005 56.2021 11.691L9.14406 91.519C5.79306 97.204 7.70206 104.599 13.3881 107.951L62.7781 137.064C68.4641 140.416 75.8591 138.505 79.2101 132.822L102.144 93.919H110.24L95.4901 120.128C95.4901 120.128 90.3561 129.342 95.1561 134.378C99.3651 138.794 107.823 141.294 107.823 141.294L125.073 147.795L130.174 179.086L130.183 179.085C130.732 182.498 133.682 185.108 137.25 185.108C141.208 185.108 144.416 181.899 144.416 177.941C144.416 177.752 144.402 177.566 144.388 177.381L144.416 177.377L139.321 141.462ZM17.9581 100.198C16.5571 99.372 16.0711 97.49 16.8971 96.09L63.9561 16.261C64.7821 14.86 66.6631 14.373 68.0631 15.199L79.5841 21.991L29.4801 106.989L17.9581 100.198ZM71.4561 128.252C70.6301 129.652 68.7491 130.139 67.3491 129.313L37.2331 111.559L87.3401 26.563L117.453 44.316C118.855 45.142 119.34 47.023 118.515 48.423L100.022 79.795H91.2391L71.3231 94.222C70.8811 94.474 70.4701 94.775 70.0931 95.113L70.0621 95.135L70.0641 95.138C68.6191 96.45 67.7061 98.336 67.7061 100.442C67.7061 104.4 70.9141 107.609 74.8731 107.609C76.4211 107.609 77.8511 107.113 79.0221 106.278L79.0241 106.281L79.0951 106.223C79.2771 106.09 79.4511 105.95 79.6191 105.8L89.2791 98.016L71.4561 128.252Z" fill="white"/>
<path d="M49.2189 5.94302L2.16091 85.772C-1.19009 91.457 0.718907 98.852 6.40491 102.204L55.7949 131.317C61.4809 134.669 68.8759 132.758 72.2269 127.075L119.284 47.246C122.638 41.56 120.727 34.165 115.042 30.814L65.6499 1.70002C59.9649 -1.65198 52.5709 0.258023 49.2189 5.94302ZM9.91391 90.343L56.9729 10.514C57.7989 9.11302 59.6799 8.62602 61.0799 9.45202L72.6009 16.244L22.4959 101.242L10.9739 94.451C9.57391 93.625 9.08791 91.743 9.91391 90.343ZM111.531 42.676L64.4719 122.505C63.6459 123.905 61.7649 124.392 60.3649 123.566L30.2489 105.812L80.3549 20.816L110.468 38.569C111.871 39.394 112.355 41.275 111.531 42.676Z" fill="#F0C42E"/>
<path d="M135.25 77.833C143.396 77.833 150 71.2292 150 63.083C150 54.9368 143.396 48.333 135.25 48.333C127.104 48.333 120.5 54.9368 120.5 63.083C120.5 71.2292 127.104 77.833 135.25 77.833Z" fill="#3A3A3A"/>
<path d="M81.875 133.75L74.801 151.625L51.976 166.542C49.808 167.774 48.342 170.101 48.342 172.772C48.342 176.73 51.55 179.939 55.509 179.939C57.044 179.939 58.464 179.452 59.63 178.629C63.391 176.258 81.981 164.545 85.125 162.749C88.625 160.749 89.25 157.624 89.25 157.624L94.125 141.624C94.125 141.624 94.125 141.624 88.375 138.999C82.625 136.374 81.875 133.75 81.875 133.75Z" fill="#3A3A3A"/>
<path d="M132.083 135.668C132.083 135.668 130.925 131.834 127.504 130.501C124.083 129.168 109.417 122.751 109.417 122.751L124.833 97.167C124.833 97.167 128.667 88.167 124.5 83.75C120.333 79.333 110.75 74 110.75 74H84L64.085 88.427C63.643 88.68 63.232 88.98 62.855 89.318L62.824 89.34L62.826 89.343C61.381 90.654 60.468 92.541 60.468 94.646C60.468 98.604 63.676 101.813 67.635 101.813C69.183 101.813 70.613 101.317 71.784 100.482L71.786 100.485L71.857 100.427C72.039 100.294 72.214 100.154 72.382 100.004L87.125 88.123H103L88.25 114.332C88.25 114.332 83.116 123.546 87.916 128.582C92.125 132.998 100.583 135.498 100.583 135.498L117.833 141.999L122.934 173.29L122.943 173.289C123.492 176.702 126.442 179.312 130.01 179.312C133.968 179.312 137.176 176.103 137.176 172.145C137.176 171.956 137.162 171.77 137.148 171.585L137.176 171.581L132.083 135.668Z" fill="#3A3A3A"/>
</symbol><symbol id="delivery" viewBox="0 0 136 164">
<g clip-path="url(#clip0)">
<path d="M93.1329 38.767C101.254 38.767 108.078 33.225 110.033 25.718L115.5 26.532C115.607 26.548 115.715 26.556 115.82 26.556C116.871 26.556 117.791 25.786 117.951 24.716C118.127 23.538 117.312 22.44 116.135 22.265L110.594 21.44C110.596 21.394 110.598 21.349 110.598 21.302C110.598 21.12 110.592 20.94 110.584 20.76C110.584 20.76 110.133 14.242 109.51 11.523C108.889 8.804 106.975 8.227 106.975 8.227C97.2049 6.015 87.2029 5.789 84.5999 5.789C81.9969 5.789 81.4419 7.121 81.4419 7.121L78.2919 12.117L78.2819 12.114C78.2059 12.236 78.136 12.359 78.063 12.482L78.0359 12.525C76.5339 15.105 75.6689 18.101 75.6689 21.302C75.6679 30.948 83.4879 38.767 93.1329 38.767Z" fill="white"/>
<path d="M131.535 78.076V78.074L104.793 75.906L95.5469 54.794C95.5469 54.794 95.0859 52.02 89.5389 46.318C83.9899 40.616 72.7399 42.928 72.7399 42.928C72.7399 42.928 48.8539 47.397 40.9949 49.246C33.1349 51.096 32.8269 59.109 32.8269 59.109L32.1949 63.628L17.0169 60.687C16.8259 60.65 16.6359 60.632 16.4489 60.632C15.0419 60.632 13.7779 61.632 13.5009 63.061L6.08995 101.303C5.77595 102.923 6.84395 104.505 8.46495 104.819L59.6609 114.742C59.7759 114.764 59.8909 114.766 60.0069 114.775H60.0089C59.2809 114.879 58.7179 114.74 58.7179 114.74L49.3179 112.891L46.2359 129.996L22.6759 150.359C20.9749 151.72 19.8839 153.812 19.8839 156.16C19.8839 160.264 23.2099 163.59 27.3129 163.59C29.3479 163.59 31.1909 162.772 32.5329 161.445C32.5329 161.445 60.2579 139.395 62.1079 137.854C63.9579 136.314 64.8809 134.001 64.8809 134.001C64.8809 134.001 69.422 120.053 70.66 117.127C71.5079 115.123 75.5919 116.048 75.5919 116.048L98.4769 124.679L106.092 153.741C106.174 154.371 106.334 154.975 106.565 155.545H106.567C107.665 158.273 110.337 160.199 113.456 160.199C117.56 160.199 120.886 156.872 120.886 152.769C120.886 152.17 120.814 151.59 120.679 151.033C119.837 146.068 116.075 123.987 115.118 119.207C114.04 113.813 110.497 112.273 110.497 112.273C110.497 112.273 89.229 100.715 87.8429 99.944C86.4559 99.174 86.7649 97.17 86.7649 97.17L90.6949 82.839L93.4679 88.695C93.4679 88.695 95.087 91.969 97.5519 92.086L130.909 92.906C135.013 92.906 138.339 89.58 138.339 85.475C138.338 81.586 135.346 78.396 131.535 78.076ZM60.1039 62.807L58.3149 68.687L68.2129 70.606L47.9989 66.689L48.5469 64.193L60.1039 62.807ZM57.8549 108.28L12.5509 99.499L18.8209 67.146L31.3629 69.577L29.7449 81.144L29.1049 85.55C29.0999 85.576 29.0969 85.606 29.0929 85.632L29.0749 85.759H29.0769C29.0369 86.071 29.0139 86.388 29.0139 86.71C29.0139 90.814 32.3409 94.139 36.4439 94.139C40.5469 94.139 43.8729 90.814 43.8729 86.71C43.8729 86.392 43.8519 86.08 43.8119 85.773L46.7129 72.55L64.1259 75.924L57.8549 108.28Z" fill="white"/>
<path d="M25.05 17.008H63.077C64.177 17.008 65.0771 16.112 65.0771 15.018C65.0771 13.924 64.177 13.028 63.077 13.028H25.05C23.95 13.028 23.05 13.924 23.05 15.018C23.05 16.112 23.95 17.008 25.05 17.008Z" fill="white"/>
<path d="M38.0798 23.025C36.9798 23.025 36.0798 23.921 36.0798 25.015C36.0798 26.109 36.9798 27.005 38.0798 27.005H61.0388C62.1388 27.005 63.0388 26.109 63.0388 25.015C63.0388 23.92 62.1388 23.025 61.0388 23.025H38.0798Z" fill="white"/>
<path d="M87.0981 32.732C95.2191 32.732 102.043 27.19 103.998 19.683L109.465 20.497C109.572 20.513 109.68 20.521 109.785 20.521C110.836 20.521 111.756 19.751 111.916 18.681C112.092 17.503 111.277 16.405 110.1 16.23L104.559 15.405C104.561 15.359 104.563 15.314 104.563 15.267C104.563 15.085 104.557 14.905 104.549 14.725C104.549 14.725 104.098 8.20703 103.475 5.48803C102.854 2.76903 100.94 2.19203 100.94 2.19203C91.1701 -0.0199716 81.1681 -0.245972 78.5641 -0.245972C75.9601 -0.245972 75.4061 1.08603 75.4061 1.08603L72.2561 6.08203L72.2461 6.07903C72.1701 6.20003 72.1001 6.32403 72.0271 6.44703L72.0001 6.49003C70.4981 9.07003 69.6331 12.066 69.6331 15.267C69.6331 24.913 77.4531 32.732 87.0981 32.732Z" fill="#3A3A3A"/>
<path d="M125.5 72.041V72.039L98.7579 69.871L89.5119 48.759C89.5119 48.759 89.0509 45.985 83.5039 40.283C77.9549 34.581 66.7049 36.893 66.7049 36.893C66.7049 36.893 42.8189 41.362 34.9599 43.21C27.0999 45.06 26.7919 53.073 26.7919 53.073L23.7099 75.109L23.0699 79.515C23.0649 79.541 23.0619 79.571 23.0579 79.597L23.0399 79.724H23.0419C23.0019 80.036 22.9789 80.353 22.9789 80.675C22.9789 84.779 26.3059 88.104 30.4089 88.104C34.5119 88.104 37.8379 84.779 37.8379 80.675C37.8379 80.357 37.8169 80.045 37.7769 79.738L42.5109 58.157L54.0679 56.771L52.2789 62.651L62.1769 64.57C63.7969 64.883 64.8649 66.466 64.5519 68.087L57.1399 106.33C56.8629 107.76 55.5989 108.76 54.1919 108.76C54.1199 108.76 54.0459 108.744 53.9719 108.739C53.2439 108.843 52.6809 108.704 52.6809 108.704L43.2809 106.855L40.1989 123.96L16.6389 144.323C14.9379 145.684 13.8469 147.776 13.8469 150.124C13.8469 154.228 17.1729 157.554 21.2759 157.554C23.3109 157.554 25.1539 156.736 26.4959 155.409C26.4959 155.409 54.2209 133.359 56.0709 131.818C57.9209 130.278 58.8439 127.965 58.8439 127.965C58.8439 127.965 63.3849 114.017 64.6229 111.091C65.4709 109.087 69.5549 110.012 69.5549 110.012L92.4399 118.643L100.055 147.705C100.137 148.335 100.297 148.939 100.528 149.509H100.53C101.628 152.237 104.3 154.163 107.419 154.163C111.523 154.163 114.849 150.836 114.849 146.733C114.849 146.134 114.777 145.554 114.642 144.997C113.8 140.032 110.038 117.951 109.081 113.171C108.003 107.777 104.46 106.237 104.46 106.237C104.46 106.237 83.1929 94.682 81.8069 93.91C80.4199 93.14 80.7289 91.136 80.7289 91.136L84.6589 76.805L87.4319 82.661C87.4319 82.661 89.0509 85.935 91.5159 86.052L124.873 86.872C128.977 86.872 132.303 83.546 132.303 79.441C132.303 75.551 129.311 72.36 125.5 72.041Z" fill="#3A3A3A"/>
<path d="M53.971 108.739H53.973C54.046 108.745 54.12 108.76 54.193 108.76C55.6 108.76 56.864 107.76 57.141 106.33L64.553 68.087C64.866 66.466 63.798 64.884 62.178 64.57L41.964 60.653L40.678 66.515L58.091 69.889L51.82 102.243L6.51603 93.464L12.786 61.111L25.328 63.542L26.16 57.592L10.982 54.65C10.791 54.613 10.601 54.595 10.414 54.595C9.00703 54.595 7.74303 55.595 7.46603 57.024L0.0550335 95.268C-0.258966 96.888 0.809034 98.47 2.43003 98.784L53.626 108.707C53.74 108.729 53.855 108.73 53.971 108.739Z" fill="#F0C42E"/>
<path d="M59.0419 8.982C59.0419 10.077 58.1419 10.972 57.0419 10.972H19.0149C17.9149 10.972 17.0149 10.076 17.0149 8.982C17.0149 7.888 17.9149 6.992 19.0149 6.992H57.0419C58.1419 6.993 59.0419 7.888 59.0419 8.982Z" fill="#F0C52E"/>
<path d="M57.0039 18.98C57.0039 20.074 56.1039 20.97 55.0039 20.97H32.0439C30.9439 20.97 30.0439 20.074 30.0439 18.98C30.0439 17.885 30.9439 16.99 32.0439 16.99H55.0029C56.1039 16.99 57.0039 17.886 57.0039 18.98Z" fill="#F0C52E"/>
</g>

</symbol><symbol id="fb-social" viewBox="0 0 32 32">
<path d="M31.9973 16C31.9973 7.16267 24.8347 0 15.9987 0C7.16267 0 0 7.16267 0 16C0 23.984 5.85067 30.6027 13.4987 31.8027V20.624H9.43733V15.9987H13.4987V12.4747C13.4987 8.464 15.888 6.24933 19.5413 6.24933C21.292 6.24933 23.1227 6.56133 23.1227 6.56133V10.4987H21.1067C19.12 10.4987 18.5 11.732 18.5 12.9973V16H22.9373L22.228 20.6253H18.5V31.804C26.148 30.604 31.9987 23.9853 31.9987 16H31.9973Z" fill="currentColor"/>
</symbol><symbol id="insta-social" viewBox="0 0 32 32">
<path d="M21 16C21 17.3261 20.4732 18.5979 19.5355 19.5355C18.5979 20.4732 17.3261 21 16 21C14.6739 21 13.4021 20.4732 12.4645 19.5355C11.5268 18.5979 11 17.3261 11 16C11 15.715 11.03 15.4367 11.0817 15.1667H9.33333V21.8283C9.33333 22.2917 9.70833 22.6667 10.1717 22.6667H21.83C22.0521 22.6662 22.2649 22.5777 22.4217 22.4205C22.5786 22.2634 22.6667 22.0504 22.6667 21.8283V15.1667H20.9183C20.97 15.4367 21 15.715 21 16ZM16 19.3333C16.4378 19.3332 16.8714 19.2469 17.2759 19.0792C17.6803 18.9116 18.0478 18.6659 18.3574 18.3562C18.6669 18.0465 18.9124 17.6789 19.0799 17.2743C19.2473 16.8698 19.3334 16.4362 19.3333 15.9983C19.3332 15.5605 19.2469 15.1269 19.0792 14.7225C18.9116 14.318 18.6659 13.9505 18.3562 13.641C18.0465 13.3314 17.6789 13.0859 17.2743 12.9185C16.8698 12.751 16.4362 12.6649 15.9983 12.665C15.1141 12.6652 14.2661 13.0167 13.641 13.6421C13.0158 14.2676 12.6648 15.1157 12.665 16C12.6652 16.8843 13.0167 17.7322 13.6421 18.3574C14.2676 18.9825 15.1157 19.3336 16 19.3333ZM20 12.5H21.9983C22.1311 12.5 22.2584 12.4474 22.3525 12.3537C22.4465 12.2599 22.4996 12.1328 22.5 12V10.0017C22.5 9.86862 22.4471 9.74102 22.3531 9.64693C22.259 9.55285 22.1314 9.5 21.9983 9.5H20C19.8669 9.5 19.7393 9.55285 19.6453 9.64693C19.5512 9.74102 19.4983 9.86862 19.4983 10.0017V12C19.5 12.275 19.725 12.5 20 12.5ZM16 0C11.7565 0 7.68687 1.68571 4.68629 4.68629C1.68571 7.68687 0 11.7565 0 16C0 20.2435 1.68571 24.3131 4.68629 27.3137C7.68687 30.3143 11.7565 32 16 32C18.1012 32 20.1817 31.5861 22.1229 30.7821C24.0641 29.978 25.828 28.7994 27.3137 27.3137C28.7994 25.828 29.978 24.0641 30.7821 22.1229C31.5861 20.1817 32 18.1012 32 16C32 13.8989 31.5861 11.8183 30.7821 9.87706C29.978 7.93586 28.7994 6.17203 27.3137 4.68629C25.828 3.20055 24.0641 2.022 22.1229 1.21793C20.1817 0.413852 18.1012 0 16 0ZM24.3333 22.4817C24.3333 23.5 23.5 24.3333 22.4817 24.3333H9.51833C8.5 24.3333 7.66667 23.5 7.66667 22.4817V9.51833C7.66667 8.5 8.5 7.66667 9.51833 7.66667H22.4817C23.5 7.66667 24.3333 8.5 24.3333 9.51833V22.4817Z" fill="currentColor"/>
</symbol><symbol id="logo" viewBox="0 0 163 35">
<path fill-rule="evenodd" clip-rule="evenodd" d="M-0.151001 0.701993V34.302H13.381C15.5624 34.3553 17.7309 33.954 19.7487 33.1235C21.7665 32.2929 23.5892 31.0514 25.101 29.478C26.6506 27.9007 27.8665 26.0273 28.6761 23.9697C29.4857 21.912 29.8724 19.7124 29.813 17.502C29.8724 15.2916 29.4857 13.092 28.6761 11.0343C27.8665 8.97669 26.6506 7.1033 25.101 5.52599C23.5891 3.9527 21.7663 2.7113 19.7486 1.88079C17.7308 1.05028 15.5623 0.648834 13.381 0.701993H-0.151001ZM7.582 26.91V8.09099H13.382C14.5845 8.04309 15.7838 8.24675 16.903 8.68895C18.0223 9.13115 19.0369 9.80215 19.882 10.659C20.7304 11.5766 21.3875 12.6541 21.8149 13.8285C22.2422 15.0029 22.4313 16.2507 22.371 17.499C22.4313 18.7473 22.2423 19.9951 21.8149 21.1695C21.3876 22.3439 20.7305 23.4214 19.882 24.339C19.0371 25.196 18.0225 25.8672 16.9032 26.3094C15.7839 26.7516 14.5845 26.9551 13.382 26.907H7.582V26.91ZM42.382 20.958H54.464V13.658H42.378V8.09099H55.669V0.701993H34.645V34.302H55.91V26.91H42.378V20.958H42.382ZM78.725 34.302L89.744 0.701993H81.286L73.795 25.422L66.304 0.701993H57.847L68.866 34.302H78.725ZM93.125 34.302H100.858V0.701993H93.125V34.302ZM131.74 32.886C134.233 31.574 136.321 29.6076 137.781 27.198L131.111 23.358C130.381 24.659 129.279 25.7121 127.946 26.382C126.505 27.1262 124.903 27.504 123.282 27.482C121.962 27.5449 120.643 27.3343 119.408 26.8635C118.173 26.3927 117.048 25.6718 116.105 24.746C115.195 23.7791 114.489 22.6393 114.028 21.3942C113.568 20.1492 113.362 18.8242 113.423 17.498C113.362 16.1718 113.568 14.8468 114.028 13.6017C114.489 12.3567 115.195 11.2168 116.105 10.25C117.048 9.32422 118.173 8.60333 119.408 8.13252C120.643 7.6617 121.962 7.45113 123.282 7.51399C124.893 7.49098 126.486 7.86172 127.921 8.59399C129.263 9.2718 130.373 10.3326 131.111 11.642L137.781 7.80199C136.294 5.39746 134.191 3.43378 131.691 2.11399C129.109 0.720899 126.216 0.00268346 123.282 0.0259933C113.503 -0.246007 105.485 7.71699 105.691 17.498C105.483 27.279 113.5 35.245 123.279 34.974C126.229 35.0012 129.138 34.283 131.737 32.886H131.74ZM149.621 20.958H161.703V13.658H149.618V8.09099H162.908V0.701993H141.885V34.302H163.15V26.91H149.618V20.958H149.621Z" fill="currentColor"/>
</symbol><symbol id="twitter-social" viewBox="0 0 32 32">
<path d="M16 32C13.8333 32 11.7604 31.5781 9.78125 30.7344C7.80208 29.8906 6.09896 28.7552 4.67188 27.3281C3.24479 25.901 2.10938 24.1979 1.26562 22.2188C0.421875 20.2396 0 18.1667 0 16C0 13.8333 0.421875 11.7604 1.26562 9.78125C2.10938 7.80208 3.24479 6.09896 4.67188 4.67188C6.09896 3.24479 7.80208 2.10938 9.78125 1.26562C11.7604 0.421875 13.8333 0 16 0C18.1667 0 20.2396 0.421875 22.2188 1.26562C24.1979 2.10938 25.901 3.24479 27.3281 4.67188C28.7552 6.09896 29.8906 7.80208 30.7344 9.78125C31.5781 11.7604 32 13.8333 32 16C32 18.1667 31.5781 20.2396 30.7344 22.2188C29.8906 24.1979 28.7552 25.901 27.3281 27.3281C25.901 28.7552 24.1979 29.8906 22.2188 30.7344C20.2396 31.5781 18.1667 32 16 32ZM25.4062 8C25.2812 8.0625 25.0938 8.17708 24.8438 8.34375L24.2344 8.75L23.6562 9.0625L23 9.28125C22.2292 8.42708 21.2812 8 20.1562 8C17.7188 8 16.5 9.02083 16.5 11.0625V12.9062C13.1458 12.7396 10.5729 11.5104 8.78125 9.21875C8.26042 9.76042 8 10.3542 8 11C8 12.375 8.51042 13.4167 9.53125 14.125C9.40625 14.125 9.22917 14.1354 9 14.1562C8.77083 14.1771 8.58854 14.1771 8.45312 14.1562C8.31771 14.1354 8.16667 14.0833 8 14C8 14.9583 8.25521 15.7552 8.76562 16.3906C9.27604 17.026 9.97917 17.4375 10.875 17.625C10.6667 17.875 10.375 18 10 18C9.66667 18 9.375 17.9062 9.125 17.7188C9.125 18.5312 9.51562 19.1615 10.2969 19.6094C11.0781 20.0573 11.9583 20.2917 12.9375 20.3125C12.5625 20.875 12.0156 21.2969 11.2969 21.5781C10.5781 21.8594 9.8125 22 9 22C8.70833 22 8.30729 21.9271 7.79688 21.7812C7.28646 21.6354 7.02083 21.5625 7 21.5625C7.33333 22.2292 8.01562 22.8021 9.04688 23.2812C10.0781 23.7604 11.3854 24 12.9688 24C14.3646 24 15.6667 23.7552 16.875 23.2656C18.0833 22.776 19.1146 22.125 19.9688 21.3125C20.8229 20.5 21.5573 19.5729 22.1719 18.5312C22.7865 17.4896 23.2448 16.4115 23.5469 15.2969C23.849 14.1823 24 13.0833 24 12C24 11.9583 24.125 11.8698 24.375 11.7344C24.625 11.599 24.9167 11.4167 25.25 11.1875C25.5833 10.9583 25.8333 10.7188 26 10.4688C24.875 10.4688 24.125 10.4896 23.75 10.5312C24.4792 10.0938 25.0312 9.25 25.4062 8Z" fill="white"/>
</symbol><symbol id="warranty" viewBox="0 0 171 195">
<g clip-path="url(#clip0)">
<path d="M77.6941 174.636C77.5901 174.506 67.1991 161.64 65.0851 158.876C63.7641 157.149 61.7781 156.198 59.4921 156.198C56.9321 156.198 54.6561 157.368 53.9801 157.751L48.4941 160.494C46.7211 160.015 42.9071 158.544 39.2141 154.226C35.9301 150.387 35.9531 145.24 36.1281 143.127L42.0211 137.234C45.1141 134.517 44.4731 130.718 43.2671 128.803L43.0481 128.492C43.0481 128.492 30.1861 112.271 28.3821 109.994C27.3931 108.745 25.9071 108.056 24.1981 108.056C21.3491 108.056 18.3191 110.031 17.4421 110.648C6.55711 118.397 5.85611 125.21 5.81111 125.961L5.78711 126.375L5.86111 126.784C12.2731 162.51 31.8871 177.921 41.3141 185.327C42.4621 186.228 43.4541 187.008 44.1681 187.633C50.7311 193.38 57.9301 194 60.7211 194C63.0961 193.999 65.2011 193.595 66.8101 192.829C71.1761 190.751 76.2351 184.819 77.6821 183.051C80.1831 179.992 78.9651 176.452 77.8501 174.843L77.6941 174.636ZM63.8011 186.509C63.3021 186.746 62.2311 187 60.7201 187C59.1601 187 53.6881 186.666 48.7761 182.368C47.9221 181.621 46.8631 180.789 45.6371 179.825C36.9431 172.995 18.9081 158.824 12.8571 126.141C13.1461 125.162 14.6861 121.203 21.4771 116.37C22.1291 115.917 22.9851 115.466 23.5961 115.228C26.4271 118.8 35.0061 129.62 37.0981 132.258L29.5701 139.785L29.3671 140.84C29.2861 141.262 27.4561 151.249 33.8941 158.777C40.1801 166.126 47.1441 167.444 48.4771 167.633L49.5591 167.787L57.2031 163.964L57.4211 163.846C57.7021 163.679 58.7561 163.198 59.4921 163.198C59.5281 163.198 59.5571 163.199 59.5801 163.201C61.7291 166.001 70.6851 177.098 72.0801 178.825C72.0811 178.829 72.0821 178.832 72.0841 178.835C69.5221 181.93 65.9111 185.504 63.8011 186.509Z" fill="white"/>
<path d="M137.85 65.824C143.362 60.647 145.006 53.849 142.883 45.041C142.676 44.185 142.035 43.5 141.194 43.239C140.352 42.977 139.434 43.179 138.78 43.769L130.559 51.172C129.121 50.377 126.883 48.721 126.094 45.842L132.897 39.113C133.844 38.175 133.889 36.66 133.001 35.667L132.815 35.46C132.622 35.244 132.393 35.064 132.137 34.927C131.977 34.841 128.149 32.811 123.313 32.811C118.604 32.811 114.454 34.732 111.311 38.367C105.311 45.305 106.754 53.409 107.768 56.838L104.28 60.326L93.9962 51.09L98.7132 47.824L78.6712 34.1L68.0702 44.703L81.7942 64.744L85.0602 60.027L94.2972 70.309L91.0022 73.603C89.5022 73.125 87.1192 72.551 84.3392 72.551C78.9102 72.551 74.1032 74.725 70.3772 78.91C70.1062 79.239 63.7782 87.075 67.6262 97.531C67.9102 98.304 68.5572 98.887 69.3552 99.091C70.1512 99.294 71.0002 99.092 71.6192 98.55L79.9142 91.291C81.2372 91.858 83.5362 93.371 84.5732 97.216L77.1892 104.732C76.5552 105.377 76.3192 106.314 76.5722 107.182C76.8252 108.05 77.5262 108.714 78.4072 108.919C78.5172 108.944 81.1312 109.542 84.5822 109.542C91.4222 109.542 96.6942 107.271 99.8272 102.975C103.19 98.362 103.921 93.542 103.821 89.887L120.038 106.104L120.21 106.262C121.731 107.522 124.528 108.987 127.661 108.987C129.888 108.987 132.286 108.246 134.513 106.163L140.031 100.647L140.133 100.543C145.145 95.185 142.391 88.845 140.233 86.241L123.288 69.282C124.315 69.388 125.436 69.463 126.61 69.463C131.498 69.462 135.279 68.238 137.85 65.824ZM84.5512 51.978L81.8172 55.927L74.5412 45.302L79.2722 40.57L89.8972 47.846L85.9472 50.58L100.739 63.866L96.6452 67.959L97.8362 66.767L84.5512 51.978ZM98.1132 85.502C98.2222 85.815 100.728 93.248 95.7852 100.029C93.0152 103.827 88.0372 104.555 84.3852 104.541L89.0882 99.754C89.6542 99.178 89.9082 98.363 89.7682 97.567C87.9772 87.42 80.0232 86.083 79.6852 86.031C78.9562 85.921 78.2142 86.135 77.6582 86.62L71.4542 92.048C70.9322 86.488 73.8672 82.559 74.2132 82.116C76.9342 79.086 80.3402 77.55 84.3382 77.55C87.8532 77.55 90.5692 78.761 90.5872 78.77C91.5402 79.209 92.6632 79.011 93.4052 78.269L112.405 59.269C113.13 58.545 113.339 57.453 112.932 56.513C112.897 56.43 109.438 48.173 115.09 41.637C117.285 39.098 120.051 37.811 123.311 37.811C124.541 37.811 125.694 37.994 126.676 38.232L121.629 43.225C121.078 43.769 120.811 44.537 120.904 45.305C121.916 53.605 129.873 56.382 130.211 56.496C131.066 56.784 132.012 56.59 132.684 55.985L138.733 50.538C139.106 55.402 137.713 59.092 134.424 62.18C132.416 64.067 129.065 64.463 126.606 64.463C122.917 64.463 119.655 63.598 119.624 63.59C118.759 63.354 117.829 63.604 117.194 64.243L98.6942 82.91C98.0232 83.587 97.8012 84.6 98.1132 85.502ZM103.615 87.344C103.615 87.347 103.615 87.349 103.615 87.352C103.615 87.349 103.615 87.347 103.615 87.344ZM103.434 86.223C103.444 86.275 103.454 86.327 103.463 86.381C103.453 86.329 103.443 86.274 103.434 86.223ZM136.525 97.079L131.046 102.555C127.798 105.535 124.146 102.987 123.47 102.468L104.827 83.823L119.768 68.748L117.733 70.801L136.44 89.507C136.9 90.099 139.537 93.794 136.525 97.079ZM121.316 69.025C121.324 69.026 121.332 69.027 121.339 69.029C121.332 69.027 121.324 69.026 121.316 69.025ZM120.473 68.882C120.493 68.886 120.518 68.89 120.539 68.894C120.516 68.89 120.494 68.886 120.473 68.882Z" fill="white"/>
<path d="M104.162 6.00201C67.7542 6.00201 38.2402 35.516 38.2402 71.924C38.2402 105.441 63.2602 133.096 95.6382 137.278V163.502C95.6382 163.502 153.077 142.259 167.607 89.88C167.685 89.597 167.746 89.342 167.818 89.068C167.931 88.644 168.043 88.218 168.148 87.791C168.212 87.528 168.267 87.277 168.326 87.022C169.463 82.171 170.084 77.121 170.084 71.924C170.084 35.516 140.57 6.00201 104.162 6.00201ZM161.51 85.424L161.504 85.451L161.498 85.478L161.469 85.608C161.43 85.778 161.393 85.947 161.35 86.123C161.256 86.499 161.159 86.874 161.049 87.284L160.945 87.684C160.92 87.792 160.892 87.9 160.863 88.008C155.299 108.064 142.343 125.708 122.357 140.45C114.984 145.888 107.949 149.914 102.638 152.625V137.277V131.123L96.5342 130.335C67.2912 126.558 45.2392 101.446 45.2392 71.923C45.2392 39.433 71.6712 13.001 104.161 13.001C136.649 13.001 163.083 39.433 163.083 71.923C163.084 76.432 162.555 80.974 161.51 85.424Z" fill="white"/>
<path d="M54.583 187.998C51.792 187.998 44.5939 187.378 38.0289 181.634C37.3149 181.009 36.3229 180.23 35.1749 179.328C25.749 171.922 6.13395 156.511 -0.278051 120.785L-0.352051 120.376L-0.328051 119.962C-0.284051 119.21 0.41795 112.398 11.3029 104.649C12.1799 104.032 15.2099 102.057 18.0589 102.057C19.7669 102.057 21.2529 102.745 22.2429 103.995C24.0469 106.272 36.909 122.493 36.909 122.493L37.1279 122.804C38.3339 124.719 38.975 128.518 35.882 131.235L29.9889 137.128C29.8139 139.24 29.791 144.388 33.075 148.227C36.767 152.544 40.5819 154.016 42.3549 154.495L47.841 151.752C48.517 151.369 50.793 150.199 53.353 150.199C55.639 150.199 57.6249 151.15 58.9459 152.877C61.0599 155.641 71.4499 168.507 71.5549 168.637L71.7099 168.844C72.8249 170.453 74.0429 173.993 71.5419 177.052C70.0949 178.821 65.0369 184.752 60.6699 186.83C59.0629 187.593 56.958 187.997 54.583 187.998ZM6.71995 120.14C12.7709 152.823 30.806 166.994 39.5 173.824C40.726 174.788 41.785 175.62 42.639 176.367C47.551 180.665 53.023 180.999 54.583 180.999C56.094 180.999 57.165 180.745 57.664 180.508C59.774 179.503 63.3859 175.929 65.9479 172.834C65.9469 172.831 65.9449 172.828 65.9439 172.824C64.5499 171.097 55.593 160 53.444 157.2C53.421 157.198 53.3909 157.197 53.3559 157.197C52.6199 157.197 51.566 157.678 51.285 157.845L51.067 157.963L43.423 161.786L42.341 161.632C41.008 161.443 34.0439 160.124 27.7579 152.776C21.3199 145.249 23.1499 135.261 23.2309 134.839L23.4339 133.784L30.9619 126.257C28.8699 123.618 20.2909 112.799 17.4599 109.227C16.8489 109.464 15.9929 109.915 15.3409 110.369C8.54795 115.202 7.00795 119.161 6.71995 120.14Z" fill="#3A3A3A"/>
<path d="M78.443 103.54C74.991 103.54 72.378 102.942 72.268 102.917C71.387 102.712 70.685 102.048 70.433 101.18C70.181 100.312 70.416 99.374 71.05 98.73L78.434 91.214C77.397 87.369 75.098 85.857 73.775 85.289L65.48 92.548C64.86 93.09 64.012 93.292 63.216 93.089C62.418 92.886 61.772 92.302 61.487 91.53C57.639 81.073 63.967 73.237 64.238 72.908C67.964 68.723 72.771 66.549 78.2 66.549C80.98 66.549 83.362 67.123 84.863 67.601L101.629 50.836C100.616 47.406 99.172 39.302 105.172 32.365C108.315 28.731 112.465 26.809 117.174 26.809C122.011 26.809 125.838 28.838 125.999 28.925C126.254 29.062 126.483 29.242 126.676 29.458L126.862 29.665C127.752 30.658 127.707 32.173 126.758 33.111L119.955 39.84C120.744 42.719 122.983 44.375 124.42 45.17L132.642 37.767C133.296 37.177 134.214 36.975 135.055 37.237C135.897 37.498 136.538 38.182 136.745 39.039C138.868 47.848 137.223 54.645 131.712 59.822C129.142 62.236 125.359 63.46 120.47 63.46C117.681 63.46 115.146 63.053 113.631 62.746L97.127 79.399C97.856 82.58 98.758 90.019 93.688 96.973C90.555 101.269 85.283 103.54 78.443 103.54ZM78.247 98.539C81.898 98.554 86.878 97.825 89.647 94.027C94.591 87.246 92.085 79.813 91.976 79.5C91.663 78.598 91.885 77.585 92.558 76.907L111.058 58.24C111.692 57.601 112.622 57.351 113.488 57.587C113.518 57.595 116.781 58.46 120.47 58.46C122.928 58.46 126.281 58.064 128.288 56.177C131.576 53.089 132.969 49.399 132.597 44.535L126.548 49.982C125.876 50.586 124.931 50.781 124.075 50.493C123.737 50.379 115.78 47.602 114.768 39.302C114.674 38.534 114.941 37.766 115.492 37.222L120.539 32.229C119.558 31.991 118.404 31.808 117.174 31.808C113.915 31.808 111.15 33.096 108.953 35.634C103.302 42.17 106.761 50.427 106.796 50.51C107.201 51.45 106.992 52.543 106.268 53.266L87.268 72.266C86.527 73.008 85.403 73.206 84.451 72.767C84.433 72.759 81.716 71.547 78.201 71.547C74.203 71.547 70.797 73.083 68.076 76.113C67.729 76.555 64.794 80.485 65.317 86.045L71.521 80.617C72.077 80.131 72.819 79.917 73.548 80.028C73.885 80.08 81.839 81.417 83.63 91.564C83.771 92.36 83.518 93.174 82.951 93.751L78.247 98.539Z" fill="#F0C42E"/>
<path d="M78.9209 54.025L88.1579 64.307L91.6979 60.766L78.4129 45.976L75.6779 49.925L68.4019 39.301L73.1339 34.569L83.7589 41.845L79.8089 44.579L94.5999 57.865L98.1409 54.324L87.8579 45.088L92.5749 41.822L72.5329 28.098L61.9319 38.701L75.6559 58.742L78.9209 54.025Z" fill="#3A3A3A"/>
<path d="M117.147 63.28C115.734 63.134 114.507 62.924 113.63 62.746L111.596 64.799L130.302 83.505C130.762 84.097 133.399 87.792 130.386 91.077L124.908 96.553C121.66 99.533 118.007 96.985 117.332 96.466L98.69 77.821L97.127 79.399C97.372 80.469 97.632 82.029 97.682 83.884L113.899 100.102L114.072 100.26C115.593 101.52 118.39 102.985 121.522 102.985C123.75 102.985 126.147 102.244 128.375 100.161L133.893 94.645L133.995 94.542C139.007 89.184 136.252 82.843 134.094 80.239L117.147 63.28Z" fill="#3A3A3A"/>
<path d="M98.0231 7C130.512 7 156.945 33.432 156.945 65.922C156.945 70.43 156.416 74.972 155.372 79.422L155.366 79.449L155.359 79.476L155.33 79.606C155.292 79.776 155.254 79.945 155.212 80.121C155.118 80.497 155.021 80.872 154.91 81.282L154.807 81.682C154.781 81.79 154.753 81.898 154.724 82.006C149.16 102.062 136.204 119.706 116.218 134.448C108.845 139.886 101.81 143.912 96.4991 146.623V131.275V125.121L90.395 124.333C61.152 120.556 39.1011 95.444 39.1011 65.921C39.1021 33.432 65.5341 7 98.0231 7ZM98.0231 0C61.6161 0 32.1021 29.514 32.1021 65.922C32.1021 99.439 57.1221 127.094 89.5 131.276V157.5C89.5 157.5 146.939 136.257 161.47 83.878C161.548 83.595 161.608 83.34 161.68 83.066C161.794 82.642 161.905 82.216 162.011 81.789C162.074 81.526 162.13 81.275 162.188 81.02C163.326 76.169 163.946 71.119 163.946 65.922C163.945 29.514 134.432 0 98.0231 0Z" fill="#3A3A3A"/>
</g>

</symbol></svg>